<svg id="SvgjsSvg1006" width="5000px" height="5000px" xmlns="http://www.w3.org/2000/svg" version="1.1" xmlns:xlink="http://www.w3.org/1999/xlink" xmlns:svgjs="http://svgjs.com/svgjs" viewBox="0 0 400 400"><defs id="SvgjsDefs1007"></defs><g id="SvgjsG1009"><svg width="400" height="400" x="0" y="0" xmlns="http://www.w3.org/2000/svg" version="1.1" xmlns:xlink="http://www.w3.org/1999/xlink" xmlns:svgjs="http://svgjs.com/svgjs" preserveAspectRatio="none"><rect width="388" height="388" stroke-width="12" stroke="#605f5f" stroke-opacity="1" fill="#f2f2f2" fill-opacity="0" x="6" y="6" rx="50%" ry="50%"></rect><defs id="SvgjsDefs1008"></defs></svg></g><g id="SvgjsG1011" transform="rotate(0 200 172.6796875)"><svg width="198" viewBox="0 0 90.00999450683594 66.19599914550781" xmlns="http://www.w3.org/2000/svg" version="1.1" xmlns:xlink="http://www.w3.org/1999/xlink" xmlns:svgjs="http://svgjs.com/svgjs" preserveAspectRatio="none" height="145.609375" x="101" y="99.875"><g><svg data-color="1" xmlns="http://www.w3.org/2000/svg" xmlns:xlink="http://www.w3.org/1999/xlink" version="1.1" x="0px" y="0px" viewBox="4.994999885559082 16.902000427246094 90.00999450683594 66.19599914550781" enable-background="new 0 0 100 100" xml:space="preserve" width="90.00999450683594" height="66.19599914550781" fill="#605f5f"><g><polygon fill-rule="evenodd" clip-rule="evenodd" points="39.189,78.386 90.019,78.386 90.019,82.649 39.189,82.649 39.189,78.386     "></polygon><polygon fill-rule="evenodd" clip-rule="evenodd" points="39.189,72.104 90.019,72.104 90.019,76.367 39.189,76.367 39.189,72.104     "></polygon><polygon fill-rule="evenodd" clip-rule="evenodd" points="39.189,65.44 90.019,65.44 90.019,69.703 39.189,69.703 39.189,65.44     "></polygon><polygon fill-rule="evenodd" clip-rule="evenodd" points="39.189,59.158 90.019,59.158 90.019,63.421 39.189,63.421 39.189,59.158     "></polygon><polygon fill-rule="evenodd" clip-rule="evenodd" points="54.397,34.947 51.922,38.345 64.378,55.897 69.303,55.879 54.397,34.947     "></polygon><polygon fill-rule="evenodd" clip-rule="evenodd" points="77.921,55.861 58.696,28.901 56.221,32.31 73.112,55.879 77.921,55.861     "></polygon><polygon fill-rule="evenodd" clip-rule="evenodd" points="86.466,55.922 62.972,22.923 60.606,26.221 81.609,55.869 86.466,55.922     "></polygon><polygon fill-rule="evenodd" clip-rule="evenodd" points="95.005,55.857 67.238,16.902 64.836,20.271 90.047,55.902 95.005,55.857     "></polygon><polygon fill-rule="evenodd" clip-rule="evenodd" points="9.247,55.813 7.084,52.941 4.995,55.862 9.247,55.813  "></polygon><polygon fill-rule="evenodd" clip-rule="evenodd" points="17.549,55.895 11.314,47.056 8.897,50.364 12.756,55.89 17.549,55.895     "></polygon><polygon fill-rule="evenodd" clip-rule="evenodd" points="13.186,44.371 15.648,40.977 26.168,55.857 21.44,55.902 13.186,44.371     "></polygon><polygon fill-rule="evenodd" clip-rule="evenodd" points="35.715,56.974 19.949,34.947 17.474,38.345 29.925,55.937 30.02,83.098    35.599,83.098 35.715,56.974  "></polygon><polygon fill-rule="evenodd" clip-rule="evenodd" points="38.664,55.879 21.773,32.31 24.248,28.901 43.473,55.861 38.664,55.879     "></polygon><polygon fill-rule="evenodd" clip-rule="evenodd" points="51.992,55.871 28.524,22.923 26.158,26.221 47.161,55.869 51.992,55.871     "></polygon><polygon fill-rule="evenodd" clip-rule="evenodd" points="60.57,55.857 32.79,16.902 30.388,20.271 55.646,55.902 60.57,55.857     "></polygon></g></svg></g><defs id="SvgjsDefs1010"></defs></svg></g><g id="SvgjsG1013" transform="rotate(0 200.0078125 301.3125)"><svg xmlns="http://www.w3.org/2000/svg" xmlns:xlink="http://www.w3.org/1999/xlink" width="198.078125" viewBox="1.7200000286102295 13.960000038146973 198.0800018310547 47.67000198364258" overflow="visible" style="overflow: visible;" transform="" version="1.1" xmlns:svgjs="http://svgjs.com/svgjs" preserveAspectRatio="none" height="47.65625" x="100.96875" y="277.484375" fill="#000000" stroke="none"><path stroke="none" fill="#605f5f" d="M12.03 18.66L12.03 34.13L12.03 34.13Q12.03 35.74 11.44 36.62L11.44 36.62L11.44 36.62Q10.85 37.49 9.88 37.89L9.88 37.89L9.88 37.89Q8.92 38.30 7.68 38.36L7.68 38.36L7.68 38.36Q6.45 38.43 5.16 38.43L5.16 38.43L5.16 60.77L1.72 60.77L1.72 14.37L5.16 14.37L5.16 14.37Q7.73 14.37 9.13 14.80L9.13 14.80L9.13 14.80Q10.53 15.23 11.17 15.87L11.17 15.87L11.17 15.87Q11.82 16.52 11.92 17.27L11.92 17.27L11.92 17.27Q12.03 18.02 12.03 18.66L12.03 18.66ZM8.59 34.13L8.59 18.66L8.59 18.66Q8.59 18.02 8.42 17.67L8.42 17.67L8.42 17.67Q8.24 17.32 7.84 17.16L7.84 17.16L7.84 17.16Q7.44 17.00 6.78 16.97L6.78 16.97L6.78 16.97Q6.12 16.95 5.16 16.95L5.16 16.95L5.16 35.85L5.16 35.85Q5.80 35.85 6.42 35.83L6.42 35.83L6.42 35.83Q7.04 35.80 7.52 35.64L7.52 35.64L7.52 35.64Q8.00 35.48 8.30 35.13L8.30 35.13L8.30 35.13Q8.59 34.78 8.59 34.13L8.59 34.13ZM23.04 19.52L26.48 19.52L26.48 60.77L23.04 60.77L23.04 19.52ZM48.66 19.52L48.66 60.77L46.08 60.77L41.35 36.71L41.35 60.77L38.34 60.77L38.34 19.52L40.92 19.52L45.68 44.45L45.68 19.52L48.66 19.52ZM66.97 19.52L66.97 22.10L63.53 22.10L63.53 37.57L66.97 37.57L66.97 40.15L63.53 40.15L63.53 58.20L66.97 58.20L66.97 60.77L60.09 60.77L60.09 19.52L66.97 19.52ZM97.93 56.48L97.93 49.47L97.93 49.47Q97.93 46.62 97.63 44.58L97.63 44.58L97.63 44.58Q97.34 42.54 96.85 41.02L96.85 41.02L96.85 41.02Q96.37 39.50 95.75 38.38L95.75 38.38L95.75 38.38Q95.13 37.25 94.49 36.25L94.49 36.25L94.49 36.25Q93.85 35.26 93.23 34.27L93.23 34.27L93.23 34.27Q92.61 33.27 92.13 32.01L92.13 32.01L92.13 32.01Q91.64 30.75 91.35 29.10L91.35 29.10L91.35 29.10Q91.05 27.45 91.05 25.14L91.05 25.14L91.05 18.66L91.05 18.66Q91.05 18.02 91.25 17.20L91.25 17.20L91.25 17.20Q91.46 16.38 92.02 15.67L92.02 15.67L92.02 15.67Q92.58 14.96 93.59 14.46L93.59 14.46L93.59 14.46Q94.60 13.96 96.21 13.96L96.21 13.96L96.21 13.96Q97.82 13.96 98.83 14.46L98.83 14.46L98.83 14.46Q99.83 14.96 100.40 15.67L100.40 15.67L100.40 15.67Q100.96 16.38 101.16 17.20L101.16 17.20L101.16 17.20Q101.36 18.02 101.36 18.66L101.36 18.66L101.36 30.70L97.93 30.70L97.93 18.66L97.93 18.66Q97.93 18.02 97.78 17.60L97.78 17.60L97.78 17.60Q97.63 17.19 97.39 16.96L97.39 16.96L97.39 16.96Q97.15 16.73 96.84 16.64L96.84 16.64L96.84 16.64Q96.53 16.54 96.21 16.54L96.21 16.54L96.21 16.54Q95.89 16.54 95.58 16.64L95.58 16.64L95.58 16.64Q95.27 16.73 95.03 16.96L95.03 16.96L95.03 16.96Q94.79 17.19 94.64 17.60L94.64 17.60L94.64 17.60Q94.49 18.02 94.49 18.66L94.49 18.66L94.49 23.90L94.49 23.90Q94.49 26.94 95 28.98L95 28.98L95 28.98Q95.51 31.02 96.28 32.54L96.28 32.54L96.28 32.54Q97.04 34.05 97.93 35.29L97.93 35.29L97.93 35.29Q98.81 36.52 99.58 37.96L99.58 37.96L99.58 37.96Q100.34 39.40 100.85 41.29L100.85 41.29L100.85 41.29Q101.36 43.18 101.36 46.00L101.36 46.00L101.36 56.48L101.36 56.48Q101.36 56.80 101.28 57.65L101.28 57.65L101.28 57.65Q101.20 58.49 100.72 59.38L100.72 59.38L100.72 59.38Q100.24 60.26 99.19 60.95L99.19 60.95L99.19 60.95Q98.14 61.63 96.21 61.63L96.21 61.63L96.21 61.63Q94.27 61.63 93.23 60.95L93.23 60.95L93.23 60.95Q92.18 60.26 91.70 59.38L91.70 59.38L91.70 59.38Q91.21 58.49 91.13 57.65L91.13 57.65L91.13 57.65Q91.05 56.80 91.05 56.48L91.05 56.48L91.05 41.01L94.49 41.01L94.49 56.48L94.49 56.48Q94.49 56.80 94.52 57.24L94.52 57.24L94.52 57.24Q94.54 57.69 94.70 58.09L94.70 58.09L94.70 58.09Q94.87 58.49 95.21 58.77L95.21 58.77L95.21 58.77Q95.56 59.06 96.21 59.06L96.21 59.06L96.21 59.06Q96.85 59.06 97.20 58.77L97.20 58.77L97.20 58.77Q97.55 58.49 97.71 58.09L97.71 58.09L97.71 58.09Q97.87 57.69 97.90 57.24L97.90 57.24L97.90 57.24Q97.93 56.80 97.93 56.48L97.93 56.48ZM110.65 19.52L120.97 19.52L120.97 22.10L117.53 22.10L117.53 60.77L114.09 60.77L114.09 22.10L110.65 22.10L110.65 19.52ZM137.13 56.91L137.13 19.52L140.57 19.52L140.57 56.91L140.57 56.91Q140.57 58.03 140.17 58.85L140.17 58.85L140.17 58.85Q139.76 59.67 139.09 60.20L139.09 60.20L139.09 60.20Q138.42 60.72 137.57 60.96L137.57 60.96L137.57 60.96Q136.73 61.20 135.84 61.20L135.84 61.20L135.84 61.20Q134.96 61.20 134.11 60.96L134.11 60.96L134.11 60.96Q133.26 60.72 132.59 60.20L132.59 60.20L132.59 60.20Q131.92 59.67 131.52 58.85L131.52 58.85L131.52 58.85Q131.11 58.03 131.11 56.91L131.11 56.91L131.11 19.52L134.55 19.52L134.55 56.91L134.55 56.91Q134.55 57.87 134.96 58.25L134.96 58.25L134.96 58.25Q135.36 58.63 135.84 58.63L135.84 58.63L135.84 58.63Q136.32 58.63 136.73 58.25L136.73 58.25L136.73 58.25Q137.13 57.87 137.13 56.91L137.13 56.91ZM158.88 57.36L158.88 22.91L158.88 22.91Q158.88 22.40 158.40 22.26L158.40 22.26L158.40 22.26Q157.94 22.10 155.44 22.10L155.44 22.10L155.44 58.20L155.44 58.20Q157.94 58.20 158.40 58.03L158.40 58.03L158.40 58.03Q158.88 57.87 158.88 57.36L158.88 57.36ZM162.32 22.99L162.32 57.15L162.32 57.15Q162.32 58.52 161.74 59.26L161.74 59.26L161.74 59.26Q161.16 60.00 160.04 60.34L160.04 60.34L160.04 60.34Q159.50 60.51 158.72 60.60L158.72 60.60L158.72 60.60Q157.94 60.69 156.57 60.75L156.57 60.75L156.57 60.75Q155.20 60.77 154.15 60.77L154.15 60.77L152.01 60.77L152.01 19.52L152.01 19.52Q153.11 19.52 154.22 19.54L154.22 19.54L154.22 19.54Q155.34 19.55 156.49 19.58L156.49 19.58L156.49 19.58Q158.85 19.63 159.98 19.93L159.98 19.93L159.98 19.93Q161.14 20.25 161.73 20.96L161.73 20.96L161.73 20.96Q162.32 21.67 162.32 22.99L162.32 22.99ZM174.19 19.52L177.62 19.52L177.62 60.77L174.19 60.77L174.19 19.52ZM199.80 23.39L199.80 56.91L199.80 56.91Q199.80 58.03 199.39 58.85L199.39 58.85L199.39 58.85Q198.97 59.67 198.27 60.21L198.27 60.21L198.27 60.21Q197.57 60.75 196.69 61.00L196.69 61.00L196.69 61.00Q195.80 61.26 194.86 61.26L194.86 61.26L194.86 61.26Q193.87 61.26 192.90 60.98L192.90 60.98L192.90 60.98Q191.93 60.69 191.18 60.14L191.18 60.14L191.18 60.14Q190.43 59.59 189.96 58.77L189.96 58.77L189.96 58.77Q189.49 57.95 189.49 56.91L189.49 56.91L189.49 23.39L189.49 23.39Q189.49 22.37 189.96 21.58L189.96 21.58L189.96 21.58Q190.43 20.79 191.20 20.25L191.20 20.25L191.20 20.25Q191.96 19.71 192.93 19.43L192.93 19.43L192.93 19.43Q193.89 19.15 194.89 19.15L194.89 19.15L194.89 19.15Q195.83 19.15 196.71 19.40L196.71 19.40L196.71 19.40Q197.60 19.66 198.28 20.18L198.28 20.18L198.28 20.18Q198.97 20.71 199.39 21.51L199.39 21.51L199.39 21.51Q199.80 22.32 199.80 23.39L199.80 23.39ZM196.36 56.91L196.36 23.39L196.36 23.39Q196.36 22.48 195.92 22.09L195.92 22.09L195.92 22.09Q195.48 21.70 194.89 21.70L194.89 21.70L194.89 21.70Q194.54 21.70 194.19 21.82L194.19 21.82L194.19 21.82Q193.84 21.94 193.56 22.17L193.56 22.17L193.56 22.17Q193.28 22.40 193.10 22.71L193.10 22.71L193.10 22.71Q192.93 23.02 192.93 23.39L192.93 23.39L192.93 56.91L192.93 56.91Q192.93 57.28 193.10 57.60L193.10 57.60L193.10 57.60Q193.28 57.93 193.56 58.14L193.56 58.14L193.56 58.14Q193.84 58.36 194.18 58.48L194.18 58.48L194.18 58.48Q194.51 58.60 194.86 58.60L194.86 58.60L194.86 58.60Q195.45 58.60 195.91 58.21L195.91 58.21L195.91 58.21Q196.36 57.82 196.36 56.91L196.36 56.91Z" transform="rotate(0 100.76000094413757 37.79500102996826)"></path><defs id="SvgjsDefs1012"></defs></svg></g></svg>